<?xml version="1.0" encoding="utf-8"?>
<!-- Generator: Adobe Illustrator 22.0.1, SVG Export Plug-In . SVG Version: 6.00 Build 0)  -->
<svg version="1.1" id="Calque_1" xmlns="http://www.w3.org/2000/svg" xmlns:xlink="http://www.w3.org/1999/xlink" x="0px" y="0px"
	 viewBox="0 0 457.5 466.7" style="enable-background:new 0 0 457.5 466.7;" xml:space="preserve">
<style type="text/css">
	.st0{fill:#FF0046;}
	.st1{fill:#FFFFFF;}
</style>
<g>
	<path class="st0" d="M339.1,441.7c-22.1,0-55.5-8.5-89.4-48.8c-0.7-0.9-48.1-57.4-89.7-107.3l16.4,37.7c15.2,35,15.5,66.5,0.9,88.7
		c-8.9,13.6-27.5,29.8-65.1,29.8C72,441.7,25,411.9,25,328c0-86.5,19.6-160,56.5-212.6C123.2,56.3,185.6,25,262.2,25
		c30.6,0,57.9,4.6,81.2,13.7c21.3,8.3,39.4,20.3,53.7,35.7c31.9,34.3,35.3,74.2,35.3,89.8c0,23.7-6.8,42.5-21.3,59.1
		c-14.5,16.5-37.5,31.4-72.4,46.8c-11.5,5.1-23.1,10.4-32.9,15c20.4,0,43.2-0.2,43.5-0.2h0.5c46.2,0.7,79.7,31.5,79.7,73.3
		c0,22.7-7.2,42.5-20.9,57.2C397.6,427.4,376.4,441.7,339.1,441.7z M207.6,158.5c6.7,2.1,13.5,4.2,20.4,6.4
		c31.6,9.9,64.3,20.1,85.3,24.4c5.8,1.2,11.2,1.8,15.9,1.8c14.8,0,21.5-5.3,21.5-17.2c0-13.9-19.4-15.4-27.7-15.4H207.6z"/>
	<path d="M262.2,50c117.3,0,145.3,72.4,145.3,114.2c0,31.6-14,54.4-78.8,83.1c-29.2,12.9-58.8,27.2-58.7,27.2c0,0,0.1,0,0.3-0.1
		c-11.7,5.6-18.7,13.8-18,23.4c0.7,10.6,10.3,12.2,28.3,12.3c3.2,0,7.4,0,12.1,0c22.4,0,56.8-0.2,56.8-0.2
		c31.3,0.5,55.1,19.5,55.1,48.3c0,29.2-16.1,58.5-65.5,58.5c-19,0-44.2-8.8-70.3-39.9c0,0-105.9-126.4-140.7-168.9
		c-10.6-12.9-15.2-22.7-15.2-29.2c0.4-9.3,6.3-14.3,16.9-14.3c3.1,0,6.7,0.4,10.6,1.3c42.6,9.5,125,39.4,167.7,48.3
		c7.7,1.6,14.7,2.3,20.9,2.3c34.1,0,46.5-21.8,46.5-42.2c0-22.7-18-40.4-52.7-40.4H174.4c-48.9,0-75.5,28.3-75.5,61.3
		c0,8.8,2.4,18.1,6.2,26.9l48.4,111.4c18.5,42.7,12.8,83.5-41.3,83.5C82.8,416.7,50,394.4,50,328C50,170.2,117.9,50,262.2,50
		 M270.6,274.2c-0.1,0.1-0.2,0.1-0.3,0.2C270.4,274.3,270.5,274.2,270.6,274.2 M262.2,0c-43.1,0-82.4,9-116.9,26.8
		C112,43.9,83.7,68.9,61.1,101.1C21.1,157.9,0,236.4,0,328c0,42.6,10.8,76.9,32.1,101.7c10.6,12.4,23.4,21.9,38.1,28.3
		c13.2,5.7,27.4,8.6,42,8.6c17.9,0,34-3.1,47.9-9.2c15.8-6.9,29-18,38.1-31.9c7.5-11.5,12.2-24.5,14-38.6
		c10.4,12.4,17.3,20.6,18.3,21.9l0,0l0,0c40.1,47.7,81.2,57.8,108.6,57.8c46.3,0,73.3-18.6,87.9-34.2c18.1-19.4,27.6-45.1,27.6-74.3
		c0-28.6-11.8-54.4-33.3-72.8c-7.8-6.7-16.8-12.2-26.6-16.3c14.6-9.3,26-18.8,35.2-29.3c18.5-21.1,27.5-45.8,27.5-75.6
		c0-39.1-15.3-78-42-106.8c-16.9-18.2-38.1-32.4-62.9-42C326.3,5.2,295.9,0,262.2,0L262.2,0z M332.7,165.9L332.7,165.9L332.7,165.9
		L332.7,165.9z"/>
</g>
<circle class="st1" cx="333" cy="175.3" r="30.7"/>
</svg>
