# Blender v2.93.5 OBJ File: 'sheetPoster.blend'
# www.blender.org
mtllib Bonjour.mtl
o PosterMissing_PosterMissing
v -0.054183 0.275733 -0.605533
v -0.118908 0.002428 -0.664604
v -0.046968 0.007950 -0.523068
v -0.034409 0.020625 -0.379521
v -0.055487 0.411354 -0.620436
v -0.008739 0.054423 -0.086110
v 0.044534 0.712404 0.522804
v 0.026488 0.036387 0.316541
v -0.053291 1.165559 -0.595333
v 0.047755 0.264821 0.559620
v -0.011765 0.000299 0.577442
v 0.046976 1.185839 0.550721
v 0.005869 1.614384 0.604209
v 0.038828 1.622688 0.457593
v 0.026330 1.612548 0.314735
v -0.017501 1.676443 -0.186248
v -0.055331 1.459663 -0.618648
v -0.037490 1.673740 -0.414731
v -0.097667 1.687392 -0.613044
vt 0.039200 0.165000
vt 0.000000 0.000000
vt 0.093400 0.008800
vt 0.178100 0.019000
vt 0.027600 0.244600
vt 0.351300 0.044900
vt 0.698700 0.445800
vt 0.589800 0.042500
vt 0.027300 0.690400
vt 0.729500 0.182100
vt 0.746100 0.022500
vt 0.705600 0.725600
vt 0.730500 0.980300
vt 0.641600 0.981300
vt 0.557100 0.972400
vt 0.259300 1.000000
vt 0.007500 0.863400
vt 0.124000 0.993800
vt 0.001500 1.000000
vn -0.9890 0.0185 0.1466
vn -0.8875 0.1136 0.4466
vn -0.9682 0.0494 0.2453
vn -0.9962 -0.0000 0.0872
vn -0.9977 0.0596 0.0313
vn -0.9977 0.0603 0.0306
vn -0.9709 0.2108 -0.1132
vn -0.9985 -0.0070 0.0545
vn -0.9728 -0.0656 -0.2224
vn -0.9984 -0.0288 -0.0480
vn -0.9898 -0.0462 0.1351
vn -0.9889 -0.0506 0.1397
vn -0.9443 -0.1823 0.2740
usemtl PosterMissing_Inst
s 1
f 1/1/1 2/2/2 3/3/3
f 4/4/4 1/1/1 3/3/3
f 4/4/4 5/5/4 1/1/1
f 6/6/4 5/5/4 4/4/4
f 5/5/4 6/6/4 7/7/4
f 8/8/5 7/7/4 6/6/4
f 5/5/4 7/7/4 9/9/4
f 7/7/4 8/8/5 10/10/6
f 8/8/5 11/11/7 10/10/6
f 12/12/8 9/9/4 7/7/4
f 12/12/8 13/13/9 14/14/10
f 12/12/8 14/14/10 15/15/4
f 9/9/4 12/12/8 15/15/4
f 16/16/4 9/9/4 15/15/4
f 17/17/11 9/9/4 16/16/4
f 18/18/12 17/17/11 16/16/4
f 19/19/13 17/17/11 18/18/12
